<?xml version="1.0" standalone="no"?>
<!DOCTYPE svg PUBLIC "-//W3C//DTD SVG 20010904//EN"
 "http://www.w3.org/TR/2001/REC-SVG-20010904/DTD/svg10.dtd">
<svg version="1.0" xmlns="http://www.w3.org/2000/svg"
 width="600.000000pt" height="600.000000pt" viewBox="0 0 600.000000 600.000000"
 preserveAspectRatio="xMidYMid meet">
<metadata>
Created by potrace 1.11, written by Peter Selinger 2001-2013
</metadata>
<g transform="translate(0.000000,600.000000) scale(0.100000,-0.100000)"
fill="#000000" stroke="none">
<path d="M3115 4869 c-271 -26 -474 -152 -605 -374 -64 -111 -105 -230 -154
-447 l-6 -28 -156 0 -155 0 -15 -35 c-27 -66 -53 -200 -56 -290 l-3 -90 156
-3 155 -2 -142 -793 c-78 -436 -151 -828 -163 -872 -36 -130 -91 -234 -159
-296 -32 -30 -76 -61 -98 -68 -22 -8 -102 -15 -189 -18 -132 -4 -153 -7 -171
-25 -64 -58 -124 -304 -94 -382 l10 -26 212 0 c403 0 554 44 727 213 107 104
203 283 265 492 37 122 47 178 228 1192 l103 583 308 0 309 0 -6 -27 c-4 -16
-67 -368 -141 -783 -75 -415 -143 -784 -151 -820 -41 -167 -121 -311 -201
-364 -61 -40 -142 -56 -285 -56 l-127 0 -26 -35 c-56 -73 -105 -280 -85 -357
l11 -40 262 4 c242 5 270 7 360 31 219 58 360 176 475 397 54 102 100 225 132
349 11 43 83 433 160 867 77 434 142 799 145 811 5 22 7 23 212 25 l206 3 19
55 c29 85 46 177 50 270 l3 85 -206 5 -207 5 24 95 c30 118 65 192 116 241 62
60 106 71 323 78 189 6 189 6 202 31 30 59 6 251 -43 340 -38 70 -55 74 -242
67 -284 -11 -416 -52 -575 -175 -146 -114 -270 -355 -319 -618 l-11 -64 -309
0 c-290 0 -309 1 -304 18 2 9 7 33 11 52 14 76 57 187 91 233 68 93 113 108
359 116 l190 6 14 45 c28 88 -15 293 -75 356 l-31 34 -124 -1 c-68 -1 -160 -5
-204 -10z"/>
</g>
</svg>
